<mxfile host="app.diagrams.net" modified="2020-08-31T14:24:56.452Z" agent="5.0 (X11; Linux x86_64) AppleWebKit/537.36 (KHTML, like Gecko) Chrome/83.0.4103.116 Safari/537.36" etag="hHmTuOIbmHrFytIbt03r" version="13.1.0" type="github">
  <diagram id="OuEiIhacXbpzbOQ_7pM1" name="Page-1">
    <mxGraphModel dx="1808" dy="1646" grid="1" gridSize="10" guides="1" tooltips="1" connect="1" arrows="1" fold="1" page="1" pageScale="1" pageWidth="827" pageHeight="1169" math="0" shadow="0">
      <root>
        <mxCell id="0" />
        <mxCell id="1" parent="0" />
        <mxCell id="0yJL9jzbyPV8nH0zorDL-1" value="Чек на квитанции" style="rounded=1;whiteSpace=wrap;html=1;" parent="1" vertex="1">
          <mxGeometry x="940" y="280" width="120" height="60" as="geometry" />
        </mxCell>
        <mxCell id="0yJL9jzbyPV8nH0zorDL-2" value="Корзина набора услуг в одну квитанцию&lt;br&gt;(удаление услуг)" style="rounded=1;whiteSpace=wrap;html=1;" parent="1" vertex="1">
          <mxGeometry x="800" y="350" width="120" height="60" as="geometry" />
        </mxCell>
        <mxCell id="0yJL9jzbyPV8nH0zorDL-3" value="Прием безаличной оплаты регистраторами" style="rounded=1;whiteSpace=wrap;html=1;" parent="1" vertex="1">
          <mxGeometry x="940" y="360" width="120" height="130" as="geometry" />
        </mxCell>
        <mxCell id="5HJ5Qjmc7Bv2tITO_o1n-25" value="" style="edgeStyle=orthogonalEdgeStyle;rounded=0;orthogonalLoop=1;jettySize=auto;html=1;" edge="1" parent="1" source="Kw4wVqmFdIb3cbrhwV6b-4" target="5HJ5Qjmc7Bv2tITO_o1n-24">
          <mxGeometry relative="1" as="geometry" />
        </mxCell>
        <mxCell id="Kw4wVqmFdIb3cbrhwV6b-4" value="Цветовая маркировка пробирок зафоткать все пробирки" style="rounded=1;whiteSpace=wrap;html=1;fillColor=#dae8fc;strokeColor=#6c8ebf;" parent="1" vertex="1">
          <mxGeometry x="180" y="430" width="120" height="60" as="geometry" />
        </mxCell>
        <mxCell id="5HJ5Qjmc7Bv2tITO_o1n-24" value="Админку, переделать на 2 цвета" style="rounded=1;whiteSpace=wrap;html=1;fillColor=#dae8fc;strokeColor=#6c8ebf;" vertex="1" parent="1">
          <mxGeometry x="340" y="430" width="120" height="60" as="geometry" />
        </mxCell>
        <mxCell id="Kw4wVqmFdIb3cbrhwV6b-9" value="АРМ&lt;br&gt;проц. Мед. Сетры&lt;br&gt;создание задания для лаборатории&lt;br&gt;(КДН, дата, № биомат, код услуги)" style="rounded=1;whiteSpace=wrap;html=1;" parent="1" vertex="1">
          <mxGeometry x="170" y="280" width="140" height="140" as="geometry" />
        </mxCell>
        <mxCell id="Kw4wVqmFdIb3cbrhwV6b-10" value="Задание для процмедсестры&lt;br&gt;&lt;br&gt;&lt;br&gt;" style="rounded=1;whiteSpace=wrap;html=1;" parent="1" vertex="1">
          <mxGeometry x="-20" y="180" width="140" height="110" as="geometry" />
        </mxCell>
        <mxCell id="Kw4wVqmFdIb3cbrhwV6b-13" value="" style="shape=internalStorage;whiteSpace=wrap;html=1;backgroundOutline=1;" parent="1" vertex="1">
          <mxGeometry x="-320" y="90" width="260" height="810" as="geometry" />
        </mxCell>
        <mxCell id="Kw4wVqmFdIb3cbrhwV6b-11" value="" style="group" parent="1" vertex="1" connectable="0">
          <mxGeometry x="-250" y="120" width="120" height="420" as="geometry" />
        </mxCell>
        <mxCell id="Kw4wVqmFdIb3cbrhwV6b-2" value="Смотнитровать рабочие станции" style="rounded=1;whiteSpace=wrap;html=1;" parent="Kw4wVqmFdIb3cbrhwV6b-11" vertex="1">
          <mxGeometry width="120" height="60" as="geometry" />
        </mxCell>
        <mxCell id="Kw4wVqmFdIb3cbrhwV6b-5" value="Установить свитч" style="rounded=1;whiteSpace=wrap;html=1;" parent="Kw4wVqmFdIb3cbrhwV6b-11" vertex="1">
          <mxGeometry y="90" width="120" height="60" as="geometry" />
        </mxCell>
        <mxCell id="Kw4wVqmFdIb3cbrhwV6b-6" value="Установить розетки 220" style="rounded=1;whiteSpace=wrap;html=1;" parent="Kw4wVqmFdIb3cbrhwV6b-11" vertex="1">
          <mxGeometry y="180" width="120" height="60" as="geometry" />
        </mxCell>
        <mxCell id="Kw4wVqmFdIb3cbrhwV6b-7" value="Смонтировать рабочие станции" style="rounded=1;whiteSpace=wrap;html=1;" parent="Kw4wVqmFdIb3cbrhwV6b-11" vertex="1">
          <mxGeometry y="270" width="120" height="60" as="geometry" />
        </mxCell>
        <mxCell id="Kw4wVqmFdIb3cbrhwV6b-8" value="Настроить рабочие станции" style="rounded=1;whiteSpace=wrap;html=1;" parent="Kw4wVqmFdIb3cbrhwV6b-11" vertex="1">
          <mxGeometry y="360" width="120" height="60" as="geometry" />
        </mxCell>
        <mxCell id="Kw4wVqmFdIb3cbrhwV6b-14" value="&lt;span&gt;Квитанция&lt;/span&gt;" style="rounded=1;whiteSpace=wrap;html=1;fillColor=#d5e8d4;strokeColor=#82b366;" parent="1" vertex="1">
          <mxGeometry x="-10" y="300" width="120" height="60" as="geometry" />
        </mxCell>
        <mxCell id="Kw4wVqmFdIb3cbrhwV6b-17" value="&lt;span&gt;Электробегунок&lt;br&gt;Его нет в ИДЦ (раз нет принтеров)&lt;br&gt;&lt;/span&gt;" style="rounded=1;whiteSpace=wrap;html=1;" parent="1" vertex="1">
          <mxGeometry x="-10" y="380" width="120" height="60" as="geometry" />
        </mxCell>
        <mxCell id="Kw4wVqmFdIb3cbrhwV6b-18" value="&lt;span&gt;ОМС квитанция из регистратуры&lt;br&gt;&lt;/span&gt;По 200 человек в день приходят из ЛПУ без статалонов&lt;span&gt;&lt;br&gt;&lt;/span&gt;" style="rounded=1;whiteSpace=wrap;html=1;" parent="1" vertex="1">
          <mxGeometry x="-10" y="460" width="120" height="100" as="geometry" />
        </mxCell>
        <mxCell id="Kw4wVqmFdIb3cbrhwV6b-20" value="АРМ&lt;br&gt;КДЛ&lt;br&gt;Поиск задания по пробирке" style="rounded=1;whiteSpace=wrap;html=1;fillColor=#d5e8d4;strokeColor=#82b366;" parent="1" vertex="1">
          <mxGeometry x="360" y="340" width="120" height="60" as="geometry" />
        </mxCell>
        <mxCell id="Kw4wVqmFdIb3cbrhwV6b-21" value="Ничего не нужно дообогощать должо автоматом уходить в работу&amp;nbsp;" style="rounded=1;whiteSpace=wrap;html=1;" parent="1" vertex="1">
          <mxGeometry x="480" y="-190" width="120" height="60" as="geometry" />
        </mxCell>
        <mxCell id="Kw4wVqmFdIb3cbrhwV6b-22" value="КДЛ убрать группы" style="rounded=1;whiteSpace=wrap;html=1;" parent="1" vertex="1">
          <mxGeometry x="660" y="350" width="120" height="60" as="geometry" />
        </mxCell>
        <mxCell id="Kw4wVqmFdIb3cbrhwV6b-23" value="Если все в одной квитанции разберутся ли процедурные медсестры" style="rounded=1;whiteSpace=wrap;html=1;fillColor=#dae8fc;strokeColor=#6c8ebf;" parent="1" vertex="1">
          <mxGeometry x="360" y="500" width="130" height="90" as="geometry" />
        </mxCell>
        <mxCell id="Kw4wVqmFdIb3cbrhwV6b-24" value="Автоматический &lt;br&gt;Доввод венепункции" style="rounded=1;whiteSpace=wrap;html=1;fillColor=#d5e8d4;strokeColor=#82b366;" parent="1" vertex="1">
          <mxGeometry x="230" y="-270" width="120" height="60" as="geometry" />
        </mxCell>
        <mxCell id="Kw4wVqmFdIb3cbrhwV6b-25" value="Купить считыватели штрихкодов" style="rounded=1;whiteSpace=wrap;html=1;" parent="1" vertex="1">
          <mxGeometry x="-250" y="570" width="120" height="60" as="geometry" />
        </mxCell>
        <mxCell id="Kw4wVqmFdIb3cbrhwV6b-26" value="Считывать за раз несколько квитанций, направлений, омс квитанций и слить во едино" style="rounded=1;whiteSpace=wrap;html=1;fillColor=#d5e8d4;strokeColor=#82b366;" parent="1" vertex="1">
          <mxGeometry x="225" y="-370" width="130" height="90" as="geometry" />
        </mxCell>
        <mxCell id="Kw4wVqmFdIb3cbrhwV6b-27" value="убрать мкб&lt;br&gt;доктора&lt;br&gt;фельдшера" style="rounded=1;whiteSpace=wrap;html=1;fillColor=#e1d5e7;strokeColor=#9673a6;" parent="1" vertex="1">
          <mxGeometry x="185" y="100" width="120" height="60" as="geometry" />
        </mxCell>
        <mxCell id="Kw4wVqmFdIb3cbrhwV6b-29" value="АРМ на 4 этаж" style="rounded=1;whiteSpace=wrap;html=1;" parent="1" vertex="1">
          <mxGeometry x="-250" y="660" width="120" height="60" as="geometry" />
        </mxCell>
        <mxCell id="Kw4wVqmFdIb3cbrhwV6b-30" value="АРМ на 7 этаж иностранцы" style="rounded=1;whiteSpace=wrap;html=1;" parent="1" vertex="1">
          <mxGeometry x="-250" y="740" width="120" height="60" as="geometry" />
        </mxCell>
        <mxCell id="5HJ5Qjmc7Bv2tITO_o1n-22" value="Заменить батарейки в крафтвеях" style="rounded=1;whiteSpace=wrap;html=1;" vertex="1" parent="1">
          <mxGeometry x="-250" y="820" width="120" height="60" as="geometry" />
        </mxCell>
        <mxCell id="5HJ5Qjmc7Bv2tITO_o1n-6" value="" style="edgeStyle=orthogonalEdgeStyle;rounded=0;orthogonalLoop=1;jettySize=auto;html=1;" edge="1" parent="1" source="Kw4wVqmFdIb3cbrhwV6b-31" target="5HJ5Qjmc7Bv2tITO_o1n-5">
          <mxGeometry relative="1" as="geometry" />
        </mxCell>
        <mxCell id="Kw4wVqmFdIb3cbrhwV6b-31" value="Если в бегунке и платные и бесплатные" style="rounded=1;whiteSpace=wrap;html=1;fillColor=#dae8fc;strokeColor=#6c8ebf;" parent="1" vertex="1">
          <mxGeometry x="40" y="730" width="120" height="60" as="geometry" />
        </mxCell>
        <mxCell id="5HJ5Qjmc7Bv2tITO_o1n-5" value="В бегунке указывать что анализ платный* Оплачивать в регистратуре и нести 2 бумаги или все по одной определить?" style="rounded=1;whiteSpace=wrap;html=1;fillColor=#dae8fc;strokeColor=#6c8ebf;" vertex="1" parent="1">
          <mxGeometry x="30" y="870" width="140" height="90" as="geometry" />
        </mxCell>
        <mxCell id="Kw4wVqmFdIb3cbrhwV6b-34" value="" style="edgeStyle=orthogonalEdgeStyle;rounded=0;orthogonalLoop=1;jettySize=auto;html=1;" parent="1" source="Kw4wVqmFdIb3cbrhwV6b-32" target="Kw4wVqmFdIb3cbrhwV6b-33" edge="1">
          <mxGeometry relative="1" as="geometry" />
        </mxCell>
        <mxCell id="Kw4wVqmFdIb3cbrhwV6b-45" value="" style="edgeStyle=orthogonalEdgeStyle;rounded=0;orthogonalLoop=1;jettySize=auto;html=1;" parent="1" source="Kw4wVqmFdIb3cbrhwV6b-32" target="Kw4wVqmFdIb3cbrhwV6b-33" edge="1">
          <mxGeometry relative="1" as="geometry" />
        </mxCell>
        <mxCell id="Kw4wVqmFdIb3cbrhwV6b-48" value="" style="edgeStyle=orthogonalEdgeStyle;rounded=0;orthogonalLoop=1;jettySize=auto;html=1;" parent="1" source="Kw4wVqmFdIb3cbrhwV6b-32" target="Kw4wVqmFdIb3cbrhwV6b-47" edge="1">
          <mxGeometry relative="1" as="geometry" />
        </mxCell>
        <mxCell id="Kw4wVqmFdIb3cbrhwV6b-50" value="" style="edgeStyle=orthogonalEdgeStyle;rounded=0;orthogonalLoop=1;jettySize=auto;html=1;" parent="1" source="Kw4wVqmFdIb3cbrhwV6b-32" target="Kw4wVqmFdIb3cbrhwV6b-49" edge="1">
          <mxGeometry relative="1" as="geometry" />
        </mxCell>
        <mxCell id="Kw4wVqmFdIb3cbrhwV6b-32" value="Талоны на бесплтную сдачу" style="rounded=1;whiteSpace=wrap;html=1;fillColor=#f8cecc;strokeColor=#b85450;" parent="1" vertex="1">
          <mxGeometry x="350" y="730" width="120" height="60" as="geometry" />
        </mxCell>
        <mxCell id="Kw4wVqmFdIb3cbrhwV6b-49" value="Генерировать штрихкоды аналог бесплатных талонов" style="rounded=1;whiteSpace=wrap;html=1;" parent="1" vertex="1">
          <mxGeometry x="660" y="870" width="120" height="60" as="geometry" />
        </mxCell>
        <mxCell id="Kw4wVqmFdIb3cbrhwV6b-47" value="Интерфес для выделения квот" style="rounded=1;whiteSpace=wrap;html=1;" parent="1" vertex="1">
          <mxGeometry x="540" y="810" width="120" height="60" as="geometry" />
        </mxCell>
        <mxCell id="Kw4wVqmFdIb3cbrhwV6b-33" value="Спускать пациента в регистратуру" style="rounded=1;whiteSpace=wrap;html=1;" parent="1" vertex="1">
          <mxGeometry x="410" y="870" width="120" height="60" as="geometry" />
        </mxCell>
        <mxCell id="Kw4wVqmFdIb3cbrhwV6b-37" value="" style="edgeStyle=orthogonalEdgeStyle;rounded=0;orthogonalLoop=1;jettySize=auto;html=1;" parent="1" source="Kw4wVqmFdIb3cbrhwV6b-35" target="Kw4wVqmFdIb3cbrhwV6b-36" edge="1">
          <mxGeometry relative="1" as="geometry" />
        </mxCell>
        <mxCell id="Kw4wVqmFdIb3cbrhwV6b-35" value="Бакушка сама принимает анализы" style="rounded=1;whiteSpace=wrap;html=1;" parent="1" vertex="1">
          <mxGeometry x="20" y="-20" width="120" height="60" as="geometry" />
        </mxCell>
        <mxCell id="Kw4wVqmFdIb3cbrhwV6b-36" value="Для них ничего не меняется" style="rounded=1;whiteSpace=wrap;html=1;" parent="1" vertex="1">
          <mxGeometry x="220" y="-20" width="120" height="60" as="geometry" />
        </mxCell>
        <mxCell id="Kw4wVqmFdIb3cbrhwV6b-40" value="" style="edgeStyle=orthogonalEdgeStyle;rounded=0;orthogonalLoop=1;jettySize=auto;html=1;" parent="1" source="Kw4wVqmFdIb3cbrhwV6b-38" target="Kw4wVqmFdIb3cbrhwV6b-39" edge="1">
          <mxGeometry relative="1" as="geometry" />
        </mxCell>
        <mxCell id="Kw4wVqmFdIb3cbrhwV6b-38" value="4 квитатанции" style="rounded=1;whiteSpace=wrap;html=1;" parent="1" vertex="1">
          <mxGeometry x="20" y="-100" width="120" height="60" as="geometry" />
        </mxCell>
        <mxCell id="Kw4wVqmFdIb3cbrhwV6b-42" value="" style="edgeStyle=orthogonalEdgeStyle;rounded=0;orthogonalLoop=1;jettySize=auto;html=1;" parent="1" source="Kw4wVqmFdIb3cbrhwV6b-39" target="Kw4wVqmFdIb3cbrhwV6b-41" edge="1">
          <mxGeometry relative="1" as="geometry" />
        </mxCell>
        <mxCell id="Kw4wVqmFdIb3cbrhwV6b-39" value="Отлаживаемся в иностранцах" style="rounded=1;whiteSpace=wrap;html=1;" parent="1" vertex="1">
          <mxGeometry x="220" y="-100" width="120" height="60" as="geometry" />
        </mxCell>
        <mxCell id="Kw4wVqmFdIb3cbrhwV6b-41" value="Одна квитанция" style="rounded=1;whiteSpace=wrap;html=1;" parent="1" vertex="1">
          <mxGeometry x="420" y="-100" width="120" height="60" as="geometry" />
        </mxCell>
        <mxCell id="Kw4wVqmFdIb3cbrhwV6b-43" value="Что делать если у пациента есть старый лист назначения из которого он что то не сдал" style="rounded=1;whiteSpace=wrap;html=1;" parent="1" vertex="1">
          <mxGeometry x="150" y="1060" width="200" height="70" as="geometry" />
        </mxCell>
        <mxCell id="5HJ5Qjmc7Bv2tITO_o1n-3" value="Бегунок полностью бесплатный (без платных анализов)" style="rounded=1;whiteSpace=wrap;html=1;" vertex="1" parent="1">
          <mxGeometry x="190" y="720" width="120" height="60" as="geometry" />
        </mxCell>
        <mxCell id="5HJ5Qjmc7Bv2tITO_o1n-4" value="Бывает ли так что пациенту не нужно идти в регистратуру после приема врача? (если его записал сам врач)" style="rounded=1;whiteSpace=wrap;html=1;" vertex="1" parent="1">
          <mxGeometry x="180" y="780" width="140" height="80" as="geometry" />
        </mxCell>
        <mxCell id="5HJ5Qjmc7Bv2tITO_o1n-7" value="Что сдают иностранцы? Куда попадает кровь?" style="rounded=1;whiteSpace=wrap;html=1;fillColor=#dae8fc;strokeColor=#6c8ebf;" vertex="1" parent="1">
          <mxGeometry x="365" y="600" width="120" height="60" as="geometry" />
        </mxCell>
        <mxCell id="5HJ5Qjmc7Bv2tITO_o1n-13" style="edgeStyle=orthogonalEdgeStyle;rounded=0;orthogonalLoop=1;jettySize=auto;html=1;entryX=0;entryY=0.5;entryDx=0;entryDy=0;" edge="1" parent="1" source="5HJ5Qjmc7Bv2tITO_o1n-8" target="Kw4wVqmFdIb3cbrhwV6b-21">
          <mxGeometry relative="1" as="geometry" />
        </mxCell>
        <mxCell id="5HJ5Qjmc7Bv2tITO_o1n-14" style="edgeStyle=orthogonalEdgeStyle;rounded=0;orthogonalLoop=1;jettySize=auto;html=1;entryX=0;entryY=0.5;entryDx=0;entryDy=0;" edge="1" parent="1" source="5HJ5Qjmc7Bv2tITO_o1n-8" target="Kw4wVqmFdIb3cbrhwV6b-24">
          <mxGeometry relative="1" as="geometry" />
        </mxCell>
        <mxCell id="5HJ5Qjmc7Bv2tITO_o1n-8" value="Отладится на иностранцах" style="rounded=1;whiteSpace=wrap;html=1;" vertex="1" parent="1">
          <mxGeometry x="20" y="-190" width="120" height="60" as="geometry" />
        </mxCell>
        <mxCell id="5HJ5Qjmc7Bv2tITO_o1n-9" value="Может с одним беунком (квитанцией) ходить несколько раз (сдать по циклу)" style="rounded=1;whiteSpace=wrap;html=1;" vertex="1" parent="1">
          <mxGeometry x="600" y="600" width="140" height="95" as="geometry" />
        </mxCell>
        <mxCell id="5HJ5Qjmc7Bv2tITO_o1n-27" value="" style="edgeStyle=orthogonalEdgeStyle;rounded=0;orthogonalLoop=1;jettySize=auto;html=1;" edge="1" parent="1" source="5HJ5Qjmc7Bv2tITO_o1n-10" target="5HJ5Qjmc7Bv2tITO_o1n-26">
          <mxGeometry relative="1" as="geometry" />
        </mxCell>
        <mxCell id="5HJ5Qjmc7Bv2tITO_o1n-10" value="Удаление того что пациент не будет сдавать? Платно он должен оплатить а ОМС на халяву" style="rounded=1;whiteSpace=wrap;html=1;" vertex="1" parent="1">
          <mxGeometry x="175" y="630" width="130" height="82" as="geometry" />
        </mxCell>
        <mxCell id="5HJ5Qjmc7Bv2tITO_o1n-15" value="Принимать кровь только от оплаченных" style="rounded=1;whiteSpace=wrap;html=1;fillColor=#d5e8d4;strokeColor=#82b366;" vertex="1" parent="1">
          <mxGeometry x="180" y="560" width="120" height="60" as="geometry" />
        </mxCell>
        <mxCell id="5HJ5Qjmc7Bv2tITO_o1n-19" value="пробирки разные с кольцами" style="rounded=1;whiteSpace=wrap;html=1;" vertex="1" parent="1">
          <mxGeometry x="840" y="-270" width="120" height="60" as="geometry" />
        </mxCell>
        <mxCell id="5HJ5Qjmc7Bv2tITO_o1n-20" value="На ковид отдельный номер" style="rounded=1;whiteSpace=wrap;html=1;" vertex="1" parent="1">
          <mxGeometry x="840" y="-180" width="120" height="60" as="geometry" />
        </mxCell>
        <mxCell id="5HJ5Qjmc7Bv2tITO_o1n-21" value="Лаборанты получают ЗП за регистрацию?" style="rounded=1;whiteSpace=wrap;html=1;" vertex="1" parent="1">
          <mxGeometry x="840" y="-90" width="120" height="60" as="geometry" />
        </mxCell>
        <mxCell id="5HJ5Qjmc7Bv2tITO_o1n-26" value="Отображать ОМС анализы не старше &amp;gt; ... месяцев" style="rounded=1;whiteSpace=wrap;html=1;" vertex="1" parent="1">
          <mxGeometry x="40" y="641" width="120" height="60" as="geometry" />
        </mxCell>
      </root>
    </mxGraphModel>
  </diagram>
</mxfile>
